<?xml version="1.0" standalone="no"?>
<!DOCTYPE svg PUBLIC "-//W3C//DTD SVG 20010904//EN"
 "http://www.w3.org/TR/2001/REC-SVG-20010904/DTD/svg10.dtd">
<svg version="1.0" xmlns="http://www.w3.org/2000/svg"
 width="140.000000pt" height="140.000000pt" viewBox="0 0 140.000000 140.000000"
 preserveAspectRatio="xMidYMid meet">
<metadata>
Created by potrace 1.11, written by Peter Selinger 2001-2013
</metadata>
<g transform="translate(0.000000,140.000000) scale(0.100000,-0.100000)"
fill="#000000" stroke="none">
<path d="M984 1165 c-16 -7 -51 -33 -79 -59 -53 -49 -57 -50 -140 -26 -48 15
-204 4 -236 -16 -4 -2 -16 7 -27 21 -11 14 -25 25 -31 25 -7 0 -14 6 -17 14
-3 8 -18 19 -34 25 -26 9 -29 7 -39 -21 -6 -17 -11 -63 -11 -102 0 -62 -3 -74
-25 -94 -28 -27 -79 -128 -70 -141 3 -5 1 -11 -4 -13 -29 -10 -12 -188 25
-259 36 -72 135 -151 206 -164 10 -2 23 -7 30 -11 11 -7 81 -15 148 -16 58 -1
148 12 185 28 19 8 35 11 35 7 0 -5 4 -3 8 2 4 6 20 17 36 25 16 8 46 31 66
52 98 96 124 263 64 403 -13 30 -18 71 -19 160 -2 165 -11 186 -71 160z m27
-94 c7 -81 6 -112 -2 -116 -5 -4 -9 -1 -9 4 0 6 -4 11 -10 11 -15 0 -60 42
-60 57 0 7 12 26 26 42 27 31 53 31 55 2z"/>
</g>
</svg>
